<?xml version="1.0" encoding="UTF-8" standalone="no"?>
<!DOCTYPE svg PUBLIC "-//W3C//DTD SVG 1.1//EN" "http://www.w3.org/Graphics/SVG/1.1/DTD/svg11.dtd">
<svg width="100%" height="100%" viewBox="0 0 1197 692" version="1.1" xmlns="http://www.w3.org/2000/svg" xmlns:xlink="http://www.w3.org/1999/xlink" xml:space="preserve" xmlns:serif="http://www.serif.com/" style="fill-rule:evenodd;clip-rule:evenodd;stroke-linejoin:round;stroke-miterlimit:2;">
    <g transform="matrix(1,0,0,1,-300.065,-619.047)">
        <rect id="Artboard1" x="0" y="0" width="2048" height="2732" style="fill:none;"/>
        <g id="Artboard11" serif:id="Artboard1">
            <g transform="matrix(0.755234,-0.435957,0.435957,0.755234,-233.845,417.564)">
                <rect x="269.659" y="757.54" width="580.508" height="580.508" style="fill:rgb(217,217,217);"/>
            </g>
            <g transform="matrix(0.87203,0,0,0.87203,755.672,96.2918)">
                <rect x="269.659" y="757.54" width="580.508" height="580.508" style="fill:rgb(217,217,217);"/>
            </g>
            <g transform="matrix(1.06393,-0.614153,0.614153,1.06393,-543.722,381.757)">
                <circle cx="476.252" cy="805.066" r="30.607" style="fill:rgb(117,117,117);"/>
            </g>
            <g transform="matrix(1.06393,-0.614153,0.614153,1.06393,-440.19,565.25)">
                <circle cx="476.252" cy="805.066" r="30.607" style="fill:rgb(117,117,117);"/>
            </g>
            <g transform="matrix(1.06393,-0.614153,0.614153,1.06393,-407.475,301.943)">
                <circle cx="476.252" cy="805.066" r="30.607" style="fill:rgb(117,117,117);"/>
            </g>
            <g transform="matrix(1.06393,-0.614153,0.614153,1.06393,-303.943,485.436)">
                <circle cx="476.252" cy="805.066" r="30.607" style="fill:rgb(117,117,117);"/>
            </g>
            <g transform="matrix(1.06393,-0.614153,0.614153,1.06393,-269.215,222.132)">
                <circle cx="476.252" cy="805.066" r="30.607" style="fill:rgb(117,117,117);"/>
            </g>
            <g transform="matrix(1.06393,-0.614153,0.614153,1.06393,-165.682,405.626)">
                <circle cx="476.252" cy="805.066" r="30.607" style="fill:rgb(117,117,117);"/>
            </g>
            <g transform="matrix(1.22847,0,0,1.22847,663.268,4.20592)">
                <circle cx="476.252" cy="805.066" r="30.607" style="fill:rgb(117,117,117);"/>
            </g>
        </g>
    </g>
</svg>
